<?xml version="1.0" encoding="UTF-8"?>
<svg xmlns="http://www.w3.org/2000/svg" width="1536" height="1024" viewBox="0 0 1536 1024" role="img" aria-label="GTZN logo">
  <defs>
    <linearGradient id="gtznGradient" x1="188" y1="350" x2="1352" y2="614" gradientUnits="userSpaceOnUse">
      <stop offset="0%" stop-color="#00c8ff"/>
      <stop offset="52%" stop-color="#0aa4ff"/>
      <stop offset="100%" stop-color="#002eff"/>
    </linearGradient>
  </defs>
  <path d="M 1096.0 350.0 L 1094.0 352.0 L 1094.0 611.0 L 1098.0 614.0 L 1156.0 614.0 L 1157.0 613.0 L 1159.0 613.0 L 1161.0 611.0 L 1161.0 454.0 L 1162.0 453.0 L 1163.0 455.0 L 1175.0 468.0 L 1175.0 469.0 L 1181.0 475.0 L 1181.0 476.0 L 1187.0 482.0 L 1187.0 483.0 L 1193.0 489.0 L 1193.0 490.0 L 1199.0 496.0 L 1199.0 497.0 L 1203.0 501.0 L 1203.0 502.0 L 1210.0 509.0 L 1210.0 510.0 L 1215.0 515.0 L 1215.0 516.0 L 1222.0 523.0 L 1222.0 524.0 L 1228.0 530.0 L 1228.0 531.0 L 1234.0 537.0 L 1234.0 538.0 L 1240.0 544.0 L 1240.0 545.0 L 1246.0 551.0 L 1246.0 552.0 L 1252.0 558.0 L 1252.0 559.0 L 1259.0 566.0 L 1259.0 567.0 L 1264.0 572.0 L 1264.0 573.0 L 1271.0 580.0 L 1271.0 581.0 L 1291.0 603.0 L 1291.0 604.0 L 1300.0 613.0 L 1304.0 613.0 L 1305.0 614.0 L 1347.0 614.0 L 1348.0 613.0 L 1350.0 613.0 L 1351.0 612.0 L 1351.0 352.0 L 1349.0 350.0 L 1288.0 350.0 L 1286.0 353.0 L 1286.0 497.0 L 1285.0 498.0 L 1275.0 487.0 L 1275.0 486.0 L 1270.0 481.0 L 1270.0 480.0 L 1265.0 475.0 L 1265.0 474.0 L 1246.0 453.0 L 1246.0 452.0 L 1240.0 446.0 L 1240.0 445.0 L 1235.0 440.0 L 1235.0 439.0 L 1228.0 432.0 L 1228.0 431.0 L 1221.0 424.0 L 1221.0 423.0 L 1208.0 409.0 L 1208.0 408.0 L 1202.0 402.0 L 1202.0 401.0 L 1195.0 394.0 L 1195.0 393.0 L 1190.0 388.0 L 1190.0 387.0 L 1183.0 380.0 L 1183.0 379.0 L 1178.0 374.0 L 1178.0 373.0 L 1164.0 358.0 L 1164.0 357.0 L 1160.0 353.0 L 1160.0 352.0 L 1159.0 352.0 L 1157.0 350.0 Z M 1285.0 498.0 L 1286.0 497.0 L 1287.0 498.0 L 1286.0 499.0 Z M 797.0 350.0 L 796.0 352.0 L 796.0 408.0 L 797.0 409.0 L 952.0 409.0 L 953.0 410.0 L 947.0 416.0 L 946.0 416.0 L 922.0 440.0 L 921.0 440.0 L 920.0 442.0 L 916.0 446.0 L 915.0 446.0 L 889.0 472.0 L 888.0 472.0 L 888.0 473.0 L 881.0 480.0 L 880.0 480.0 L 797.0 562.0 L 796.0 564.0 L 796.0 612.0 L 797.0 613.0 L 799.0 613.0 L 800.0 614.0 L 804.0 614.0 L 805.0 613.0 L 807.0 613.0 L 808.0 614.0 L 812.0 614.0 L 813.0 613.0 L 815.0 613.0 L 816.0 614.0 L 820.0 614.0 L 821.0 613.0 L 823.0 613.0 L 824.0 614.0 L 829.0 614.0 L 830.0 613.0 L 831.0 614.0 L 844.0 614.0 L 845.0 613.0 L 847.0 614.0 L 861.0 614.0 L 862.0 613.0 L 863.0 614.0 L 901.0 614.0 L 902.0 613.0 L 904.0 614.0 L 1058.0 614.0 L 1062.0 611.0 L 1062.0 559.0 L 1060.0 555.0 L 905.0 555.0 L 904.0 554.0 L 1007.0 453.0 L 1008.0 453.0 L 1044.0 417.0 L 1045.0 417.0 L 1046.0 415.0 L 1048.0 414.0 L 1051.0 410.0 L 1052.0 410.0 L 1056.0 406.0 L 1057.0 404.0 L 1057.0 352.0 L 1055.0 350.0 Z M 500.0 350.0 L 498.0 353.0 L 498.0 404.0 L 499.0 405.0 L 499.0 408.0 L 500.0 409.0 L 601.0 409.0 L 602.0 410.0 L 602.0 611.0 L 604.0 613.0 L 610.0 613.0 L 611.0 614.0 L 613.0 613.0 L 616.0 613.0 L 617.0 614.0 L 618.0 613.0 L 619.0 614.0 L 620.0 613.0 L 623.0 613.0 L 624.0 614.0 L 629.0 614.0 L 630.0 613.0 L 632.0 614.0 L 636.0 614.0 L 637.0 613.0 L 639.0 613.0 L 640.0 614.0 L 645.0 614.0 L 646.0 613.0 L 647.0 614.0 L 652.0 614.0 L 653.0 613.0 L 656.0 613.0 L 657.0 614.0 L 659.0 614.0 L 660.0 613.0 L 667.0 613.0 L 668.0 612.0 L 668.0 410.0 L 669.0 409.0 L 770.0 409.0 L 772.0 408.0 L 772.0 352.0 L 770.0 350.0 Z M 208.0 385.0 L 208.0 386.0 L 202.0 393.0 L 201.0 396.0 L 199.0 398.0 L 197.0 402.0 L 197.0 404.0 L 195.0 407.0 L 195.0 409.0 L 194.0 410.0 L 194.0 412.0 L 192.0 416.0 L 191.0 424.0 L 190.0 425.0 L 190.0 431.0 L 189.0 432.0 L 189.0 537.0 L 190.0 538.0 L 190.0 544.0 L 191.0 545.0 L 191.0 549.0 L 192.0 550.0 L 192.0 552.0 L 193.0 553.0 L 195.0 561.0 L 199.0 569.0 L 201.0 571.0 L 202.0 574.0 L 205.0 577.0 L 205.0 578.0 L 216.0 590.0 L 217.0 590.0 L 222.0 595.0 L 223.0 595.0 L 229.0 600.0 L 247.0 609.0 L 253.0 610.0 L 254.0 611.0 L 257.0 611.0 L 258.0 612.0 L 262.0 612.0 L 263.0 613.0 L 272.0 613.0 L 273.0 614.0 L 466.0 614.0 L 469.0 612.0 L 469.0 610.0 L 470.0 609.0 L 470.0 461.0 L 468.0 457.0 L 466.0 457.0 L 465.0 456.0 L 318.0 456.0 L 314.0 459.0 L 314.0 512.0 L 318.0 515.0 L 402.0 515.0 L 403.0 516.0 L 403.0 554.0 L 402.0 555.0 L 280.0 555.0 L 279.0 554.0 L 275.0 554.0 L 266.0 549.0 L 260.0 543.0 L 257.0 537.0 L 257.0 535.0 L 256.0 534.0 L 256.0 429.0 L 257.0 428.0 L 257.0 426.0 L 259.0 422.0 L 263.0 417.0 L 264.0 417.0 L 267.0 414.0 L 273.0 411.0 L 275.0 411.0 L 276.0 410.0 L 280.0 410.0 L 281.0 409.0 L 469.0 409.0 L 470.0 407.0 L 470.0 353.0 L 468.0 350.0 L 277.0 350.0 L 276.0 351.0 L 268.0 351.0 L 267.0 352.0 L 262.0 352.0 L 261.0 353.0 L 258.0 353.0 L 257.0 354.0 L 255.0 354.0 L 254.0 355.0 L 246.0 357.0 L 241.0 360.0 L 237.0 361.0 L 235.0 363.0 L 232.0 364.0 L 230.0 366.0 L 226.0 368.0 L 223.0 371.0 L 222.0 371.0 Z" fill="url(#gtznGradient)" fill-rule="evenodd"/>
</svg>
